<svg xmlns="http://www.w3.org/2000/svg" viewBox="0 0 226.73 178.69"><defs><style>.a{fill:rgba(255,255,255,0.8);}</style></defs><title>ibrain_logo</title><path class="a" d="M.9,80.19a18,18,0,1,1,17.3,18.1A18,18,0,0,1,.9,80.19Z"/><path class="a" d="M226.5,150.39a18.06,18.06,0,0,0-17.3-15c-3.4-.1-6.3,1.4-9.1,2.7-4.4,1.9-8.7,3.8-13.4,4.4a46,46,0,0,1-8.3,0A21.94,21.94,0,0,1,169,140a38.84,38.84,0,0,1-7.9-4.6,35.94,35.94,0,0,1-15.7-29.7c0-.1-.2-1.7-.2-1.8-.2-3.3-.4-4.8-.4-8.1.1-24.3,0-48.6,0-72.9,0-1.4,0-2.9.1-4.3a18,18,0,1,0-36-.6v25.2c-15.7-10.6-39.1-9.7-41-9.6a70.14,70.14,0,0,0-22.1,4.9,71,71,0,0,0-20.9,12.7,2.23,2.23,0,0,0-.6,1.3c0,.3.7.6,1.1.7,9.7,2.6,16.6,8.4,20.4,17.8a65.54,65.54,0,0,1,1.9,6.3c1.3-.9,2.5-1.9,3.9-2.8a37.78,37.78,0,1,1-16.5,31.2v-.3c-12.2,7-23.7,6.4-35-2-1.1,18.3,6.4,46.1,32.6,63.4a70.44,70.44,0,0,0,39.8,11.9c21.8-.1,40-8.6,54.8-24.6.2.2.3.4.4.5a73.26,73.26,0,0,0,17.3,14.1,71.19,71.19,0,0,0,32.3,9.8,74.36,74.36,0,0,0,17-.9,76.83,76.83,0,0,0,23.1-8.2A18.44,18.44,0,0,0,226.5,150.39Z"/></svg>
