<svg xmlns="http://www.w3.org/2000/svg" xmlns:xlink="http://www.w3.org/1999/xlink" viewBox="0 0 537.89 233.97"><defs><style>.a{fill:url(#a);}.b{fill:url(#b);}.c{fill:#5385a1;}.d{fill:#333c6f;}.e{fill:url(#c);}</style><linearGradient id="a" x1="1.06" y1="82.45" x2="37" y2="82.45" gradientUnits="userSpaceOnUse"><stop offset="0.06" stop-color="#5980a1"/><stop offset="0.44" stop-color="#507196"/><stop offset="0.84" stop-color="#4a668e"/></linearGradient><linearGradient id="b" x1="3.98" y1="132.74" x2="206.85" y2="78.38" gradientUnits="userSpaceOnUse"><stop offset="0" stop-color="#7ec3d0"/><stop offset="0.05" stop-color="#74b0c3"/><stop offset="0.21" stop-color="#55799b"/><stop offset="0.33" stop-color="#415682"/><stop offset="0.4" stop-color="#3a4979"/><stop offset="0.57" stop-color="#364172"/><stop offset="0.83" stop-color="#2c2b61"/><stop offset="0.85" stop-color="#2b295f"/></linearGradient><linearGradient id="c" x1="26.83" y1="50.05" x2="224.65" y2="164.25" gradientUnits="userSpaceOnUse"><stop offset="0" stop-color="#7ec3d0"/><stop offset="0.12" stop-color="#79b9c9"/><stop offset="0.33" stop-color="#6b9fb6"/><stop offset="0.6" stop-color="#547496"/><stop offset="0.91" stop-color="#343a6b"/><stop offset="0.99" stop-color="#2b295f"/></linearGradient></defs><title>logo_color</title><path class="a" d="M1.06,82.39A18,18,0,0,1,18.74,64.46,18,18,0,1,1,1.06,82.39Z"/><path class="b" d="M226.63,152.58a18.12,18.12,0,0,0-17.3-15c-3.39-.06-6.27,1.44-9.14,2.69-4.36,1.9-8.67,3.78-13.41,4.4a59.21,59.21,0,0,1-8.32,0,22.26,22.26,0,0,1-9.44-2.51,38.24,38.24,0,0,1-7.9-4.59,36,36,0,0,1-15.68-29.75c0-.13-.16-1.67-.16-1.8-.21-3.25-.4-4.76-.39-8.09.07-24.31,0-48.62,0-72.93q0-2.16.09-4.33a18,18,0,1,0-36-.61c0,7.84,0,15.69,0,23.53v1.68c-15.71-10.58-39.11-9.69-41-9.6A69.26,69.26,0,0,0,46,40.57,71.33,71.33,0,0,0,25,53.32a1.72,1.72,0,0,0-.57,1.27c0,.27.67.56,1.08.67,9.75,2.55,16.63,8.4,20.39,17.78.81,2,1.27,4.21,1.88,6.27,1.26-.87,2.5-1.94,3.86-2.77a37.85,37.85,0,1,1-16.55,31.29c0-.09,0-.18,0-.27-12.17,7-23.74,6.35-35-2-1.1,18.29,6.39,46.1,32.63,63.41A70.28,70.28,0,0,0,72.5,180.85c21.79-.11,40-8.56,54.76-24.61l.43.49A73.18,73.18,0,0,0,145,170.86a71.48,71.48,0,0,0,32.33,9.85,70.58,70.58,0,0,0,17-.92,73.86,73.86,0,0,0,23.05-8.25A18.22,18.22,0,0,0,226.63,152.58Z"/><path class="c" d="M266.87,204.19a11.92,11.92,0,0,1,8.74,3.48,12.08,12.08,0,0,1-8.55,20.66,11.77,11.77,0,0,1-8.63-3.5,11.51,11.51,0,0,1-3.52-8.47,12.25,12.25,0,0,1,1.6-6.14,11.84,11.84,0,0,1,10.36-6Zm.1,2.23a9.81,9.81,0,0,0-8.4,4.91,10,10,0,0,0-1.28,5A9.67,9.67,0,0,0,267,226.1a9.83,9.83,0,0,0,5-1.3,9.3,9.3,0,0,0,3.55-3.55,10,10,0,0,0,1.28-5,9.73,9.73,0,0,0-1.28-4.95,9.53,9.53,0,0,0-3.59-3.54A9.72,9.72,0,0,0,267,206.43Z"/><path class="c" d="M294.68,204.19a11.92,11.92,0,0,1,8.74,3.48,12.08,12.08,0,0,1-8.55,20.66,11.77,11.77,0,0,1-8.63-3.5,11.51,11.51,0,0,1-3.52-8.47,12.25,12.25,0,0,1,1.6-6.14,11.84,11.84,0,0,1,10.36-6Zm.1,2.23a9.81,9.81,0,0,0-8.4,4.91,10,10,0,0,0-1.28,5,9.67,9.67,0,0,0,9.69,9.74,9.83,9.83,0,0,0,5-1.3,9.3,9.3,0,0,0,3.55-3.55,10,10,0,0,0,1.28-5,9.73,9.73,0,0,0-1.28-4.95,9.53,9.53,0,0,0-3.59-3.54A9.72,9.72,0,0,0,294.78,206.43Z"/><path class="c" d="M322.49,204.19a11.92,11.92,0,0,1,8.74,3.48,12.08,12.08,0,0,1-8.55,20.66,11.77,11.77,0,0,1-8.63-3.5,11.51,11.51,0,0,1-3.52-8.47,12.25,12.25,0,0,1,1.6-6.14,11.84,11.84,0,0,1,10.36-6Zm.1,2.23a9.81,9.81,0,0,0-8.4,4.91,10,10,0,0,0-1.28,5,9.67,9.67,0,0,0,9.69,9.74,9.83,9.83,0,0,0,5-1.3,9.3,9.3,0,0,0,3.55-3.55,10,10,0,0,0,1.28-5,9.73,9.73,0,0,0-1.28-4.95,9.53,9.53,0,0,0-3.59-3.54A9.72,9.72,0,0,0,322.59,206.43Z"/><path class="c" d="M351.53,210.75l-3.5,8.54,3.5,8.46h-2.3l-3.49-8.48,3.49-8.52Zm7.16,0-3.5,8.56,3.5,8.44h-2.3l-3.48-8.48,3.45-8.52Z"/><path class="c" d="M371.2,204.77l10.72,23h-2.48l-3.61-7.56h-9.9l-3.58,7.56h-2.56l10.86-23Zm-.29,4.88L367,218h7.86Z"/><path class="c" d="M387.31,210.75v12.58l12.48-12.58H400v17h-2.19V215.29l-12.39,12.46h-.27v-17Zm-.31-6.83h2.06a3.3,3.3,0,0,0,1.42,1.22,5.09,5.09,0,0,0,2.13.41,4.79,4.79,0,0,0,2-.36,4,4,0,0,0,1.45-1.27h2a3.94,3.94,0,0,1-1.76,2.35,6.6,6.6,0,0,1-3.73.95,6.85,6.85,0,0,1-3.75-.93A4.05,4.05,0,0,1,387,203.93Z"/><path class="c" d="M405.19,227.75v-23H416.7V207h-9.25v7.36h1.08a18.63,18.63,0,0,1,6.24.76,6.44,6.44,0,0,1,3.06,2.39,6.42,6.42,0,0,1-.85,8.24,7.38,7.38,0,0,1-5.48,2Zm2.27-11.06v8.81h2.83A10.18,10.18,0,0,0,414,225a4.15,4.15,0,0,0,1.87-1.52,4,4,0,0,0,.7-2.29,3.93,3.93,0,0,0-1-2.7,4.65,4.65,0,0,0-2.45-1.46,20.13,20.13,0,0,0-4.36-.35Z"/><path class="c" d="M423.2,210.75h2.19v3.13a8.78,8.78,0,0,1,3-2.67,7.93,7.93,0,0,1,3.76-.89,8.4,8.4,0,0,1,6.2,2.61,8.62,8.62,0,0,1,2.58,6.28,8.78,8.78,0,0,1-2.55,6.37,8.59,8.59,0,0,1-9.89,1.77,9.39,9.39,0,0,1-3.08-2.52V234H423.2Zm8.75,1.67a6.43,6.43,0,0,0-4.78,2,6.77,6.77,0,0,0-1.94,4.93,7,7,0,0,0,.87,3.48,6.31,6.31,0,0,0,2.48,2.45,6.86,6.86,0,0,0,3.41.91,6.43,6.43,0,0,0,3.31-.91,6.7,6.7,0,0,0,2.47-2.55,6.89,6.89,0,0,0,0-6.87,6.59,6.59,0,0,0-5.82-3.42Z"/><path class="c" d="M459.31,222.11l1.84,1a10.05,10.05,0,0,1-2.1,2.88,8.31,8.31,0,0,1-2.67,1.66,9.34,9.34,0,0,1-3.36.57,8.13,8.13,0,0,1-6.51-2.73,9.2,9.2,0,0,1-2.35-6.16,9.09,9.09,0,0,1,2-5.77,8.12,8.12,0,0,1,6.74-3.22,8.38,8.38,0,0,1,6.94,3.3,9.2,9.2,0,0,1,1.88,5.81h-15.3a6.92,6.92,0,0,0,1.89,4.86,6,6,0,0,0,4.52,1.89,7.27,7.27,0,0,0,2.53-.45,6.65,6.65,0,0,0,2.09-1.2A10.19,10.19,0,0,0,459.31,222.11Zm0-4.58a7.25,7.25,0,0,0-1.28-2.8,6,6,0,0,0-2.21-1.69,6.78,6.78,0,0,0-2.89-.64,6.23,6.23,0,0,0-4.3,1.61,7.27,7.27,0,0,0-2,3.52Z"/><path class="c" d="M468,210.75v12.58l12.48-12.58h.17v17h-2.19V215.29l-12.39,12.46h-.27v-17Zm-.31-6.83h2.06a3.3,3.3,0,0,0,1.42,1.22,5.09,5.09,0,0,0,2.13.41,4.79,4.79,0,0,0,2-.36,4,4,0,0,0,1.45-1.27h2a3.94,3.94,0,0,1-1.76,2.35,6.6,6.6,0,0,1-3.73.95,6.85,6.85,0,0,1-3.75-.93A4.05,4.05,0,0,1,467.67,203.93Z"/><path class="c" d="M497.59,219.57H487.7v8.19h-2.19v-17h2.19v6.75h9.89v-6.75h2.19v17h-2.19Z"/><path class="c" d="M502.55,227.75l3.5-8.54-3.5-8.46h2.3l3.49,8.48-3.47,8.52Zm7.16,0,3.49-8.52-3.49-8.48H512l3.49,8.48L512,227.75Z"/><path class="d" d="M257.21,1.79h7.67V42.38h-7.67Z"/><path class="d" d="M272.74,12.36h7.53v3.08a18.06,18.06,0,0,1,4.64-3,11.22,11.22,0,0,1,4.26-.84,10.3,10.3,0,0,1,7.58,3.12q2.62,2.65,2.62,7.83V42.38h-7.45V29.23a33.28,33.28,0,0,0-.48-7.14,4.89,4.89,0,0,0-1.68-2.69,4.7,4.7,0,0,0-3-.92A5.55,5.55,0,0,0,282.87,20a8.16,8.16,0,0,0-2.27,4.23,34.12,34.12,0,0,0-.33,6.09v12h-7.53Z"/><path class="d" d="M306.65,12.36h7.53v3.08a18.06,18.06,0,0,1,4.64-3,11.22,11.22,0,0,1,4.26-.84,10.3,10.3,0,0,1,7.58,3.12q2.62,2.65,2.62,7.83V42.38h-7.45V29.23a33.28,33.28,0,0,0-.48-7.14,4.89,4.89,0,0,0-1.68-2.69,4.7,4.7,0,0,0-3-.92A5.55,5.55,0,0,0,316.78,20a8.16,8.16,0,0,0-2.27,4.23,34.12,34.12,0,0,0-.33,6.09v12h-7.53Z"/><path class="d" d="M354.65,11.59a15.91,15.91,0,0,1,8,2.12,15.58,15.58,0,0,1,7.93,13.63,15.77,15.77,0,0,1-2.11,7.95,15.23,15.23,0,0,1-5.75,5.78,15.88,15.88,0,0,1-8,2.08,15,15,0,0,1-11-4.59,15.24,15.24,0,0,1-4.57-11.16,15.19,15.19,0,0,1,5.16-11.72A15.07,15.07,0,0,1,354.65,11.59Zm.12,7.09a7.75,7.75,0,0,0-5.84,2.44,8.67,8.67,0,0,0-2.34,6.25,8.83,8.83,0,0,0,2.31,6.35,7.72,7.72,0,0,0,5.84,2.43,7.81,7.81,0,0,0,5.89-2.46A8.76,8.76,0,0,0,363,27.37a8.71,8.71,0,0,0-2.31-6.28A7.81,7.81,0,0,0,354.77,18.68Z"/><path class="d" d="M373.51,12.36h7.67l7.58,17.71,7.57-17.71H404l-12.77,30h-4.88Z"/><path class="d" d="M430.52,12.36H438v30h-7.53V39.2a14.76,14.76,0,0,1-4.42,3,12.38,12.38,0,0,1-4.81.92,13.36,13.36,0,0,1-10.06-4.51A15.74,15.74,0,0,1,407,27.42,16.13,16.13,0,0,1,411.09,16a13.08,13.08,0,0,1,10-4.44,12.68,12.68,0,0,1,5.07,1,13.84,13.84,0,0,1,4.38,3.06Zm-7.92,6.18A7.61,7.61,0,0,0,416.8,21a8.9,8.9,0,0,0-2.31,6.33,9,9,0,0,0,2.35,6.4,7.62,7.62,0,0,0,5.79,2.51,7.76,7.76,0,0,0,5.88-2.47,9,9,0,0,0,2.34-6.47A8.77,8.77,0,0,0,428.51,21,7.86,7.86,0,0,0,422.6,18.54Z"/><path class="d" d="M446.57,1.3h7.53V12.36h4.47v6.48H454.1V42.38h-7.53V18.84h-3.86V12.36h3.86Z"/><path class="d" d="M465.54,0a4.61,4.61,0,0,1,3.4,1.43,4.77,4.77,0,0,1,1.42,3.48,4.71,4.71,0,0,1-1.4,3.43,4.55,4.55,0,0,1-3.36,1.42,4.62,4.62,0,0,1-3.43-1.45,4.84,4.84,0,0,1-1.42-3.52,4.63,4.63,0,0,1,1.4-3.39A4.6,4.6,0,0,1,465.54,0Zm-3.77,12.36h7.53v30h-7.53Z"/><path class="d" d="M472.93,12.36h7.67l7.58,17.71,7.57-17.71h7.63l-12.77,30h-4.88Z"/><path class="d" d="M537.86,29.55H513.67a8.05,8.05,0,0,0,2.8,5.09,8.79,8.79,0,0,0,5.81,1.89,10,10,0,0,0,7.26-3l6.35,3a15,15,0,0,1-5.68,5,17.78,17.78,0,0,1-7.86,1.61,15.54,15.54,0,0,1-11.5-4.46,15.16,15.16,0,0,1-4.44-11.16,15.67,15.67,0,0,1,4.43-11.41,14.87,14.87,0,0,1,11.1-4.54,15.43,15.43,0,0,1,11.53,4.54q4.44,4.54,4.44,12Zm-7.53-5.93a7.56,7.56,0,0,0-2.94-4.08,8.53,8.53,0,0,0-5.1-1.57,9,9,0,0,0-5.53,1.77A9.84,9.84,0,0,0,514,23.62Z"/><path class="d" d="M257.76,110.18V69.59h6.38a33,33,0,0,1,8.12.72,10.87,10.87,0,0,1,5.8,3.59,9.43,9.43,0,0,1,2.15,6.18,9,9,0,0,1-1,4.21,10.71,10.71,0,0,1-3.19,3.54,12.7,12.7,0,0,1,5.41,4.35,11,11,0,0,1,1.71,6.17,11.48,11.48,0,0,1-1.77,6.23,11.29,11.29,0,0,1-4.56,4.21,17.51,17.51,0,0,1-7.71,1.39ZM265.49,77v8.55h1.69a6.29,6.29,0,0,0,4.2-1.19,4,4,0,0,0,1.37-3.23,3.78,3.78,0,0,0-1.3-3,6,6,0,0,0-4-1.12Zm0,15.45v10.4h1.94q4.81,0,6.49-1.21a4.09,4.09,0,0,0,1.67-3.53,5,5,0,0,0-2-4.14q-2-1.52-6.53-1.52Z"/><path class="d" d="M287.94,80.16h6.46v3.78a8.07,8.07,0,0,1,2.79-3.39A6.72,6.72,0,0,1,301,79.39a7,7,0,0,1,3.06.77l-2.35,6.48a5.18,5.18,0,0,0-2.18-.66q-1.74,0-2.94,2.15t-1.2,8.44l0,1.46v12.14h-7.48Z"/><path class="d" d="M329.93,80.16h7.53v30h-7.53V107a14.76,14.76,0,0,1-4.42,3,12.38,12.38,0,0,1-4.81.92,13.36,13.36,0,0,1-10.06-4.51,15.74,15.74,0,0,1-4.24-11.21,16.13,16.13,0,0,1,4.11-11.39,13.08,13.08,0,0,1,10-4.44,12.68,12.68,0,0,1,5.07,1,13.84,13.84,0,0,1,4.38,3.06ZM322,86.34a7.61,7.61,0,0,0-5.8,2.47,8.9,8.9,0,0,0-2.31,6.33,9,9,0,0,0,2.35,6.4,7.62,7.62,0,0,0,5.79,2.51,7.76,7.76,0,0,0,5.88-2.47,9,9,0,0,0,2.34-6.47,8.77,8.77,0,0,0-2.34-6.35A7.86,7.86,0,0,0,322,86.34Z"/><path class="d" d="M348,67.8a4.61,4.61,0,0,1,3.4,1.43,4.77,4.77,0,0,1,1.42,3.48,4.71,4.71,0,0,1-1.4,3.43,4.55,4.55,0,0,1-3.36,1.42,4.62,4.62,0,0,1-3.43-1.45,4.84,4.84,0,0,1-1.42-3.52A4.8,4.8,0,0,1,348,67.8Zm-3.77,12.36h7.53v30h-7.53Z"/><path class="d" d="M358.62,80.16h7.53v3.08a18.06,18.06,0,0,1,4.64-3,11.22,11.22,0,0,1,4.26-.84,10.3,10.3,0,0,1,7.58,3.12q2.62,2.65,2.62,7.83v19.84H377.8V97a33.28,33.28,0,0,0-.48-7.14,4.89,4.89,0,0,0-1.68-2.69,4.7,4.7,0,0,0-3-.92,5.55,5.55,0,0,0-3.92,1.53A8.16,8.16,0,0,0,366.48,92a34.12,34.12,0,0,0-.33,6.09v12h-7.53Z"/><path class="d" d="M279.06,142.91l-5.72,5q-3-4.19-6.14-4.19a3.73,3.73,0,0,0-2.49.81,2.37,2.37,0,0,0-1,1.83,3.14,3.14,0,0,0,.69,1.93,52.39,52.39,0,0,0,5.67,5.21q4.42,3.7,5.36,4.66a16.19,16.19,0,0,1,3.33,4.54,11.34,11.34,0,0,1,1,4.73,10.85,10.85,0,0,1-3.45,8.25,12.59,12.59,0,0,1-9,3.25,13.39,13.39,0,0,1-7.55-2.12,16.78,16.78,0,0,1-5.51-6.68l6.49-3.92q2.93,5.38,6.74,5.38a5,5,0,0,0,3.34-1.16,3.45,3.45,0,0,0,1.35-2.68,4.62,4.62,0,0,0-1-2.76,29.48,29.48,0,0,0-4.5-4.22q-6.63-5.41-8.57-8.35a10.6,10.6,0,0,1-1.93-5.86,9.59,9.59,0,0,1,3.22-7.24,11.16,11.16,0,0,1,7.94-3,12.52,12.52,0,0,1,5.79,1.41A21.08,21.08,0,0,1,279.06,142.91Z"/><path class="d" d="M300.41,147.19a15.91,15.91,0,0,1,8,2.12,15.58,15.58,0,0,1,7.93,13.63,15.77,15.77,0,0,1-2.11,7.95,15.23,15.23,0,0,1-5.75,5.78,15.88,15.88,0,0,1-8,2.08,15,15,0,0,1-11-4.59,15.91,15.91,0,0,1,.59-22.88A15.07,15.07,0,0,1,300.41,147.19Zm.12,7.09a7.75,7.75,0,0,0-5.84,2.44,8.67,8.67,0,0,0-2.34,6.25,8.83,8.83,0,0,0,2.31,6.35,7.72,7.72,0,0,0,5.84,2.43,7.81,7.81,0,0,0,5.89-2.46,9.68,9.68,0,0,0,0-12.59A7.81,7.81,0,0,0,300.54,154.28Z"/><path class="d" d="M321.65,136.37h7.53V178h-7.53Z"/><path class="d" d="M336,148h7.61v14.46a20,20,0,0,0,.58,5.86,5.11,5.11,0,0,0,1.87,2.55,5.34,5.34,0,0,0,3.17.91,5.53,5.53,0,0,0,3.19-.9,5.26,5.26,0,0,0,1.95-2.63,20.21,20.21,0,0,0,.47-5.55V148h7.53v12.72q0,7.86-1.24,10.76a11.74,11.74,0,0,1-4.47,5.42,13.69,13.69,0,0,1-7.5,1.89,13.31,13.31,0,0,1-8-2.21,11.66,11.66,0,0,1-4.29-6.15q-.88-2.73-.88-9.93Z"/><path class="d" d="M370.84,136.9h7.53V148h4.47v6.48h-4.47V178h-7.53V154.44H367V148h3.86Z"/><path class="d" d="M389.81,135.6a4.61,4.61,0,0,1,3.4,1.43,4.77,4.77,0,0,1,1.42,3.48,4.71,4.71,0,0,1-1.4,3.43,4.55,4.55,0,0,1-3.36,1.42,4.62,4.62,0,0,1-3.43-1.45A4.84,4.84,0,0,1,385,140.4a4.8,4.8,0,0,1,4.79-4.8ZM386,148h7.53v30H386Z"/><path class="d" d="M414.51,147.19a15.91,15.91,0,0,1,8,2.12,15.58,15.58,0,0,1,7.93,13.63,15.77,15.77,0,0,1-2.11,7.95,15.23,15.23,0,0,1-5.75,5.78,15.88,15.88,0,0,1-8,2.08,15,15,0,0,1-11-4.59,15.91,15.91,0,0,1,.59-22.88A15.07,15.07,0,0,1,414.51,147.19Zm.12,7.09a7.75,7.75,0,0,0-5.84,2.44,8.67,8.67,0,0,0-2.34,6.25,8.83,8.83,0,0,0,2.31,6.35,7.72,7.72,0,0,0,5.84,2.43,7.81,7.81,0,0,0,5.89-2.46,9.68,9.68,0,0,0,0-12.59A7.81,7.81,0,0,0,414.64,154.28Z"/><path class="d" d="M436.59,148h7.53V151a18.06,18.06,0,0,1,4.64-3,11.22,11.22,0,0,1,4.26-.84,10.3,10.3,0,0,1,7.58,3.12q2.62,2.65,2.62,7.83V178h-7.45V164.83a33.28,33.28,0,0,0-.48-7.14A4.89,4.89,0,0,0,453.6,155a4.7,4.7,0,0,0-3-.92,5.55,5.55,0,0,0-3.92,1.53,8.16,8.16,0,0,0-2.27,4.23,34.12,34.12,0,0,0-.33,6.09v12h-7.53Z"/><path class="d" d="M488.86,152.15l-4.66,4.66Q481.36,154,479,154a3.25,3.25,0,0,0-2,.54,1.62,1.62,0,0,0-.72,1.34,1.65,1.65,0,0,0,.46,1.12,8.49,8.49,0,0,0,2.25,1.39l2.76,1.38q4.36,2.15,6,4.39a9.14,9.14,0,0,1-1.31,11.92,11.25,11.25,0,0,1-7.88,2.68,12.52,12.52,0,0,1-10.48-5.13l4.63-5a10.72,10.72,0,0,0,3.1,2.5,6.87,6.87,0,0,0,3.16,1,3.76,3.76,0,0,0,2.4-.72,2.08,2.08,0,0,0,.91-1.66q0-1.74-3.28-3.39L476.51,165q-7.28-3.67-7.28-9.19a8,8,0,0,1,2.75-6.08,10,10,0,0,1,7-2.52,12.18,12.18,0,0,1,9.88,5Z"/><path class="e" d="M226.63,152.58a18.12,18.12,0,0,0-17.3-15c-3.39-.06-6.27,1.44-9.14,2.69-4.36,1.9-8.67,3.78-13.41,4.4a59.21,59.21,0,0,1-8.32,0,22.26,22.26,0,0,1-9.44-2.51,38.24,38.24,0,0,1-7.9-4.59,36,36,0,0,1-15.68-29.75c0-.13-.16-1.67-.16-1.8-.21-3.25,0-4.78-.39-8.09-1.46-12.69-8-26.23-15.4-35.47C122.33,53.58,114.29,48.54,109,45c-15.71-10.58-39.11-9.39-41-9.3A69.26,69.26,0,0,0,46,40.57,71.33,71.33,0,0,0,25,53.32a1.72,1.72,0,0,0-.57,1.27c0,.27.67.56,1.08.67,9.75,2.55,16.63,8.4,20.39,17.78.81,2,1.27,4.21,1.88,6.27,1.26-.87,2.5-1.94,3.86-2.77a37.85,37.85,0,0,1,59.15,31.29c.09,28.21,16.73,48.77,16.86,48.9A73.18,73.18,0,0,0,145,170.86a71.48,71.48,0,0,0,32.33,9.85,70.58,70.58,0,0,0,17-.92,73.86,73.86,0,0,0,23.05-8.25A18.22,18.22,0,0,0,226.63,152.58Z"/></svg>